<?xml version="1.0" encoding="UTF-8" standalone="no"?>
<svg
   xmlns:dc="http://purl.org/dc/elements/1.1/"
   xmlns:cc="http://creativecommons.org/ns#"
   xmlns:rdf="http://www.w3.org/1999/02/22-rdf-syntax-ns#"
   xmlns:svg="http://www.w3.org/2000/svg"
   xmlns="http://www.w3.org/2000/svg"
   xmlns:sodipodi="http://sodipodi.sourceforge.net/DTD/sodipodi-0.dtd"
   xmlns:inkscape="http://www.inkscape.org/namespaces/inkscape"
   sodipodi:docname="uni_logo_white.svg"
   inkscape:version="1.0beta2 (2b71d25, 2019-12-03)"
   xml:space="preserve"
   enable-background="new 0 0 269 70"
   viewBox="0 0 32.831001 59.099998"
   height="59.099998"
   width="32.831001"
   y="0px"
   x="0px"
   id="Ebene_1"
   version="1.1"><metadata
     id="metadata11"><rdf:RDF><cc:Work
         rdf:about=""><dc:format>image/svg+xml</dc:format><dc:type
           rdf:resource="http://purl.org/dc/dcmitype/StillImage" /><dc:title></dc:title></cc:Work></rdf:RDF></metadata><defs
     id="defs9" /><sodipodi:namedview
     fit-margin-bottom="0"
     fit-margin-right="0"
     fit-margin-left="0"
     fit-margin-top="0"
     inkscape:document-rotation="0"
     inkscape:current-layer="Ebene_1"
     inkscape:window-maximized="1"
     inkscape:window-y="23"
     inkscape:window-x="0"
     inkscape:cy="29.55"
     inkscape:cx="-95.2135"
     inkscape:zoom="3.5846913"
     showgrid="false"
     id="namedview7"
     inkscape:window-height="855"
     inkscape:window-width="1440"
     inkscape:pageshadow="2"
     inkscape:pageopacity="0"
     guidetolerance="10"
     gridtolerance="10"
     objecttolerance="10"
     borderopacity="1"
     bordercolor="#666666"
     pagecolor="#84ffff" /><path
     inkscape:connector-curvature="0"
     style="fill:#ffffff;fill-opacity:1"
     id="path5"
     d="m 12.327,57.79 c 0.547,-0.123 0.857,-0.265 1.308,-0.6 0.647,-0.48 0.959,-0.907 1.218,-1.67 0.091,0.906 -0.058,1.772 -0.874,2.215 -0.568,0.307 -1.072,0.238 -1.652,0.055 m -2.055,-6.483 c 1.341,-1.311 1.729,-2.884 1.153,-4.668 -0.354,-1.097 -0.819,-1.717 -1.771,-2.365 0.273,-0.301 0.439,-0.461 0.746,-0.728 0.259,-0.225 0.41,-0.345 0.69,-0.542 l 0.335,0.9 c 0.428,1.151 1.082,1.86 1.113,2.947 0.056,1.945 -1.155,3.581 -2.266,4.456 M 30.061,25.58 c -2.092,3.557 -4.832,5.294 -6.18,5.27 0.247,-0.381 0.328,-0.903 0.305,-1.211 -1.206,0.023 -2.019,-0.567 -2.625,-1.603 -0.489,-0.832 -0.348,-2.451 -0.348,-2.451 -1.101,-0.154 -1.735,0.975 -1.735,2.018 v 10.386 c 0,0.782 0.086,1.302 0.367,1.852 1.129,2.202 3.647,3.552 5.753,3.273 -0.928,1.021 -1.864,1.732 -3.36,1.893 -0.849,0.09 -1.37,0.027 -2.172,-0.263 1.033,0.938 2.068,1.421 3.476,1.167 1.439,-0.258 2.259,-1.53 3.002,-1.736 0.453,-0.126 0.846,-0.053 1.37,0.048 -0.652,0.072 -1.124,0.431 -1.448,0.86 -0.268,0.356 -0.336,0.984 -0.355,1.362 0.472,0.113 0.993,0.142 1.563,-0.078 0.427,-0.163 0.661,-0.324 0.967,-0.666 0.646,0.424 1.07,1.515 1.07,1.515 -0.625,-0.264 -1.287,-0.287 -1.873,-0.088 -1.785,0.607 -2.51,1.759 -5.909,1.16 -1.491,-0.262 -1.966,-1.322 -3.172,-1.506 0.405,0.242 0.645,0.587 0.817,1.089 0.128,0.369 0.154,0.608 0.107,0.996 1.94,-0.475 3.137,0.638 4.431,0.722 1.725,0.112 1.938,-1.39 4.682,-1.359 0.856,0.01 2.065,0.609 2.44,1.553 -0.915,-0.433 -2.268,-0.307 -2.992,-0.105 -1.123,0.311 -1.794,0.685 -2.587,1.556 0.811,0.319 1.33,0.409 2.202,0.384 0.737,-0.021 1.166,-0.108 1.854,-0.374 -0.967,0.925 -1.898,1.438 -3.413,1.954 -1.017,0.346 -1.686,0.227 -2.726,0.005 0.307,-0.165 0.473,-0.465 0.473,-0.465 -1.542,-0.267 -1.679,-1.193 -2.926,-1.448 -0.331,-0.066 -0.521,-0.092 -0.858,-0.114 1.255,2.354 4.11,3.707 6.381,3.176 1.091,-0.255 2.524,-0.711 3.629,-1.854 -0.33,1.621 -0.938,2.472 -2.268,3.061 -1.778,0.787 -3.157,0.925 -4.98,0.238 0.81,0.715 1.737,1.014 2.973,1.235 0.811,0.146 1.292,0.164 2.111,0.078 -2.111,1.284 -5.568,0.598 -7.846,-1.093 -1.621,-1.205 -2.52,-2.41 -3.215,-4.389 0.252,2.153 0.727,4.495 2.878,5.85 1.015,0.639 1.986,1.062 2.924,0.944 -0.783,0.541 -1.911,0.678 -2.819,0.678 -1.814,0 -3.503,-1.699 -4.285,-3.698 0.164,2.238 -0.718,3.698 -2.282,3.698 -0.882,0 -1.338,-0.386 -2.186,-0.396 -0.53,-0.006 -0.91,0.11 -1.448,0.326 0.25,-0.553 0.357,-0.92 0.802,-1.332 0.916,-0.848 2.672,-0.854 3.318,-2.287 0.416,-0.92 0.35,-1.552 0.224,-2.577 -0.656,1.843 -1.854,2.693 -3.891,3.628 -1.113,0.512 -1.679,1.604 -1.931,2.539 -0.098,-1.251 -0.029,-2.087 0.627,-3.156 0.783,-1.274 2.665,-1.64 3.438,-2.953 0.6,-1.019 0.736,-1.76 0.734,-2.942 -0.407,1.391 -1.015,2.394 -1.739,2.895 -1.557,1.077 -3.212,1.526 -3.976,2.858 -0.618,1.08 -0.653,1.918 -0.443,3.135 C 6.159,58.052 5.862,57.192 6.035,56.06 6.182,55.087 6.564,54.479 7.377,53.925 6.225,54.042 5.422,54.694 5.07,55.797 4.786,56.692 4.896,57.407 5.437,58.175 3.476,57.66 3.618,54.937 4.858,53.599 c 2.124,-2.297 5.889,-2.126 4.313,-6.323 -0.185,1.575 -0.455,2.498 -1.64,3.332 -1.883,1.321 -4.787,1.186 -5.312,4.314 -0.151,-2.404 0.586,-3.184 1.98,-4.5 0.86,-0.812 2.49,-1.207 2.383,-3.531 -0.539,1.274 -1.304,1.785 -2.363,2.248 -1.228,0.534 -1.979,0.29 -2.992,1.574 -0.049,-0.938 0.272,-1.813 1.159,-2.338 0.811,-0.481 1.678,-0.376 2.295,-1.301 0,0 -0.702,-0.271 -1.717,0.123 0.967,-1.216 1.678,-0.904 2.635,-1.368 0.59,-0.284 0.828,-0.533 1.255,-0.977 -0.839,-0.097 -1.632,-0.108 -2.49,0.097 -1.012,0.243 -2.095,1.1 -2.095,1.1 0.618,-1.733 3.044,-3.195 5.434,-3.871 3.24,-0.914 4.555,-1.244 5.159,-2.365 0.414,-0.768 0.488,-1.021 0.488,-2.795 V 26.749 c 0,-1.172 -1.859,-0.811 -2.407,-0.264 -0.495,0.495 -0.656,1.094 -0.272,1.887 C 8.339,28.403 7.716,26.567 7.716,26.567 7.7,26.77 7.696,26.981 7.698,27.202 6.872,26.8 6.432,26.399 5.955,25.613 5.653,25.116 5.529,24.793 5.421,24.221 4.695,24.796 2.771,24.981 2.46,24.754 1.672,24.178 1.215,22.709 1.012,21.241 0.825,19.884 0.907,19.041 1.352,17.746 0.245,15.767 0,13.484 0,11.164 0,9.226 1.182,6.755 2.799,5.18 3.456,1.941 6.953,0 9.51,0 11.938,0 13.941,1.393 15.13,3.986 16.234,1.432 18.869,0 21.563,0 c 2.519,0 4.267,0.954 5.707,3.02 1.179,0.247 1.919,0.531 2.752,1.4 1.103,1.153 1.894,2.224 1.943,4.159 0.015,0.534 -0.231,0.818 -0.52,1.269 0.962,1.363 1.386,2.377 1.386,4.045 0,1.704 -0.154,2.584 -0.916,3.985 0.083,0.162 0.12,0.261 0.165,0.437 0.064,0.254 0.08,0.406 0.066,0.668 -0.548,0.181 -1.151,0.144 -1.302,0.699 -0.132,0.487 0.897,2.876 -0.783,5.898 M 19.848,25.36 c 0.112,-1.009 0.563,-1.955 1.197,-2.678 0.331,0.091 0.583,0.222 0.908,0.46 0.238,0.174 0.39,0.311 0.545,0.505 -1.076,0.188 -2.148,0.859 -2.65,1.713 m 6.261,-1.379 c 0.16,1.255 -0.09,2.697 -0.701,3.717 0.139,-0.857 0.091,-1.853 -0.22,-2.645 0.35,-0.176 0.562,-0.389 0.771,-0.759 0.065,-0.114 0.113,-0.214 0.15,-0.313 m -2.106,-2.642 c 0.118,0.013 0.235,0.035 0.353,0.065 0.705,0.184 1.194,0.742 1.483,1.479 -0.426,0.197 -0.702,0.402 -1.064,0.775 -0.131,0.135 -0.219,0.235 -0.308,0.354 -0.182,-0.144 -0.39,-0.253 -0.626,-0.321 -0.135,-0.038 -0.273,-0.065 -0.414,-0.082 0.02,-0.572 0.09,-0.941 0.277,-1.522 0.099,-0.304 0.18,-0.51 0.299,-0.748 m -1.83,0.413 c 0.48,-0.272 0.999,-0.428 1.52,-0.431 -0.158,0.18 -0.274,0.367 -0.403,0.635 -0.09,0.186 -0.131,0.298 -0.187,0.496 -0.147,-0.23 -0.266,-0.35 -0.497,-0.496 -0.156,-0.098 -0.291,-0.165 -0.433,-0.204 M 7.268,16.636 c 0.15,-0.109 0.301,-0.209 0.456,-0.302 0.104,0.145 0.165,0.252 0.252,0.431 0.189,0.388 0.276,0.666 0.312,1.044 C 7.91,17.976 7.571,18.204 7.271,18.475 7.176,18.264 7.134,18.096 7.103,17.835 7.048,17.361 7.09,17.023 7.268,16.636 M 7.943,16.21 c 0.762,-0.41 1.6,-0.609 2.598,-0.464 l 0.082,0.013 C 10.413,16.118 10.236,16.362 9.935,16.72 9.709,16.988 9.573,17.13 9.317,17.367 9.046,17.121 8.891,16.985 8.61,16.75 8.348,16.53 8.179,16.393 7.943,16.21 m 3.272,-0.318 c 0.733,0.209 1.409,0.585 1.995,1.113 -0.077,0.343 -0.147,0.699 -0.188,1.01 -0.063,0.486 -0.09,0.822 -0.094,1.229 -0.667,-0.807 -1.431,-1.406 -2.322,-1.641 z m 2.403,1.521 c 0.728,0.813 1.272,1.898 1.546,3.229 -0.227,-0.199 -0.452,-0.315 -0.787,-0.424 -0.313,-0.102 -0.547,-0.139 -0.822,-0.12 l -0.211,-0.311 c 0.105,-0.318 0.164,-0.587 0.223,-0.983 0.079,-0.546 0.095,-0.908 0.051,-1.391 m 1.587,3.447 c 0.147,0.827 0.191,1.743 0.113,2.744 -0.373,-0.897 -0.785,-1.814 -1.253,-2.656 z M 6.761,19.023 C 6.686,19.118 6.614,19.215 6.545,19.316 L 5.848,18.455 5.156,18.158 c 0.102,-0.255 0.333,-0.717 0.488,-0.893 -0.285,-0.124 -0.639,-0.867 -0.77,-1.251 0.368,0.06 0.586,0.066 0.958,0.028 0.25,-0.023 0.392,-0.05 0.633,-0.118 L 5.803,13.587 c 0.597,0.178 0.927,0.329 1.452,0.662 0.438,0.277 0.828,0.359 1.035,0.834 0.053,0.125 0.08,0.215 0.099,0.329 -0.765,0.351 -1.381,0.916 -1.702,1.685 -0.045,0.333 -0.056,0.524 -0.049,0.858 0.007,0.424 0.036,0.681 0.123,1.068 M 6.024,20.25 C 5.502,21.406 5.295,22.729 5.352,23.81 4.639,23.436 4.067,22.972 3.642,22.418 3.84,22.364 4.004,22.31 4.239,22.224 4.571,22.103 4.755,22.025 5.072,21.869 5.024,21.379 4.937,21.094 4.704,20.659 4.553,20.377 4.335,20.293 4.226,19.99 4.155,19.794 4.135,19.671 4.136,19.462 c 0.278,-0.042 0.45,-0.03 0.72,0.051 0.234,0.07 0.347,0.165 0.555,0.293 0.256,0.155 0.409,0.265 0.613,0.444 M 3.346,21.983 C 2.961,21.331 2.751,20.576 2.723,19.729 c 0.385,0.228 0.624,0.436 0.944,0.811 0.304,0.355 0.448,0.589 0.633,1.019 -0.146,0.104 -0.233,0.157 -0.396,0.231 -0.205,0.095 -0.379,0.157 -0.558,0.193 m -0.604,-3.02 c 0.046,-0.548 0.153,-0.935 0.403,-1.495 0,-0.603 0.146,-1.252 0.371,-1.873 l 0.947,1.612 -0.401,0.92 c -0.326,0.179 -0.508,0.287 -0.82,0.491 -0.202,0.132 -0.333,0.223 -0.5,0.345 m 0.902,-3.694 c 0.384,-0.922 0.926,-1.746 1.403,-2.216 0.068,0.363 0.124,0.631 0.235,1.048 0.133,0.499 0.229,0.775 0.431,1.251 C 5.407,15.291 5.228,15.279 4.917,15.291 4.639,15.304 4.488,15.413 4.209,15.395 3.981,15.382 3.822,15.348 3.644,15.269 m 2.076,-2.78 c 0.764,-0.544 1.676,-0.911 2.636,-1.069 -0.1,0.642 -0.161,1.059 -0.26,1.75 L 7.977,14.026 7.538,13.982 C 7.285,13.82 7.145,13.723 6.905,13.542 6.403,13.164 6.109,12.905 5.72,12.489 m 3.374,-1.148 c 0.741,-0.037 1.492,0.051 2.213,0.279 -0.139,-0.186 -0.315,-0.369 -0.52,-0.537 l 0.011,-0.719 c 0.06,-0.245 0.088,-0.384 0.134,-0.633 0.038,-0.211 0.062,-0.349 0.086,-0.53 l 0.093,0.013 c 0.223,0.035 0.439,0.079 0.647,0.129 0.146,0.332 0.408,0.908 0.558,1.082 0.121,0.142 0.194,0.219 0.327,0.35 0,0 -0.306,0.547 -0.356,0.794 -0.106,0.505 -0.052,0.981 0.147,1.355 l -0.972,-0.692 c -0.085,0.276 -0.173,0.552 -0.145,0.692 0.115,0.558 0.171,0.887 0.128,1.453 -0.021,0.273 -0.047,0.453 -0.102,0.681 C 10.385,14.904 9.405,14.998 8.577,15.33 8.532,15.03 8.535,14.806 8.578,14.465 8.629,14.07 8.805,13.878 8.861,13.483 8.903,13.187 8.844,13.012 8.89,12.717 8.925,12.5 9.011,11.772 9.094,11.341 m 1.171,-0.609 C 10.039,10.61 9.799,10.517 9.551,10.467 9.37,10.43 9.193,10.402 9.02,10.382 9.063,10.186 9.073,10.008 9.064,9.762 9.053,9.533 9.033,9.369 8.982,9.189 9.26,9.15 9.547,9.127 9.837,9.124 l 0.506,0.505 c 0.082,0.324 0.082,0.532 0,0.854 -0.024,0.096 -0.048,0.174 -0.078,0.249 M 8.511,10.347 C 7.309,10.321 6.338,10.699 5.484,11.184 6.144,10.218 7.205,9.575 8.442,9.288 8.509,9.459 8.538,9.606 8.55,9.821 c 0.012,0.208 0.004,0.357 -0.039,0.526 m 4.914,-0.361 c 0.937,0.537 1.639,1.323 2.112,2.385 -0.055,0.153 -0.141,0.295 -0.267,0.45 -0.089,0.11 -0.148,0.168 -0.261,0.253 l -0.96,-0.84 c 0.053,-0.304 0,-0.522 -0.188,-0.767 -0.146,-0.193 -0.279,-0.284 -0.513,-0.351 -0.028,-0.269 -0.028,-0.424 0,-0.691 0.021,-0.176 0.041,-0.304 0.077,-0.439 m 2.847,6.125 c 0.007,0.185 0.01,0.374 0.01,0.566 0,0.94 0.02,1.759 0.04,2.555 L 15.34,18.868 c -0.118,-0.329 -0.243,-0.629 -0.372,-0.903 0.043,-0.259 0.092,-0.454 0.184,-0.745 0.137,-0.434 0.24,-0.674 0.461,-1.072 z m 0.068,3.81 c 0.028,1.077 0.05,2.165 0.024,3.518 -0.194,-1.417 -0.432,-2.592 -0.705,-3.565 z m -1.767,-2.694 c -0.413,-0.674 -0.867,-1.138 -1.35,-1.464 0.366,-0.386 0.608,-0.61 1.034,-0.97 0.331,-0.278 0.525,-0.429 0.879,-0.678 -0.063,0.64 -0.114,0.999 -0.231,1.631 -0.108,0.591 -0.188,0.949 -0.332,1.481 m -1.671,-1.659 c -0.254,-0.138 -0.515,-0.243 -0.782,-0.327 -0.09,-0.306 -0.136,-0.534 -0.184,-0.894 -0.051,-0.363 -0.063,-0.572 -0.061,-0.938 0.209,0.104 0.325,0.175 0.514,0.313 0.144,0.104 0.221,0.169 0.351,0.291 0.294,-0.127 0.491,-0.16 0.811,-0.134 0.249,0.021 0.394,0.06 0.618,0.171 -0.357,0.276 -0.542,0.461 -0.819,0.818 -0.203,0.26 -0.314,0.433 -0.448,0.7 M 3.178,13.456 C 3.196,11.553 3.577,10.27 4.602,8.828 l 0.286,0.093 c 0.057,0.293 0.114,0.458 0.253,0.723 0.127,0.24 0.225,0.379 0.4,0.563 -1.051,0.91 -1.859,2.073 -2.363,3.249 M 4.995,8.304 C 5.48,7.693 5.977,7.167 6.506,6.729 6.592,7.003 6.655,7.237 6.705,7.47 l 0.922,0.893 0.288,0.44 C 7.199,9.055 6.541,9.424 5.95,9.874 5.778,9.615 5.493,9.189 5.458,9.033 5.423,8.879 5.207,8.493 5.005,8.308 Z M 7.149,6.247 C 8.251,5.513 9.489,5.13 10.961,5.13 c 0.503,0 0.967,0.054 1.393,0.155 l 0.007,0.286 C 12.289,6.044 12.21,6.311 12.01,6.748 11.867,7.061 11.767,7.233 11.564,7.514 11.397,7.369 9.782,6.162 9.563,6.16 9.412,6.618 8.777,8.211 8.469,8.636 L 8.354,8.666 C 8.235,8.222 8.087,7.954 7.77,7.598 7.506,7.302 7.317,7.159 6.964,6.98 L 7.083,6.629 Z m 6.148,-0.639 c 0.941,0.433 1.634,1.125 2.096,1.929 -0.057,0.087 -0.114,0.167 -0.196,0.271 -0.116,0.148 -0.188,0.23 -0.32,0.365 C 14.728,8.074 14.649,8.005 14.534,7.867 14.267,7.547 13.766,6.425 13.567,6.102 13.449,5.915 13.368,5.766 13.297,5.608 m 2.43,2.624 c 0.419,1.068 0.487,2.244 0.241,3.239 C 14.857,9.91 13.588,9.002 11.943,8.63 l 0.669,-2.456 c 0.558,0.436 0.839,0.745 1.222,1.34 0.255,0.397 0.68,1.305 0.996,2.101 0.054,-0.173 0.131,-0.344 0.238,-0.545 0.2,-0.372 0.37,-0.593 0.659,-0.838 M 11.246,8.507 C 10.913,8.463 10.566,8.439 10.203,8.433 9.754,8.425 9.319,8.462 8.9,8.539 L 9.586,7.359 9.942,6.905 c 0.328,0.262 0.498,0.432 0.761,0.76 0.247,0.311 0.389,0.526 0.543,0.842 m 2.466,15.237 c -0.226,-0.26 -0.492,-0.474 -0.779,-0.646 -0.193,-0.658 -0.485,-1.4 -0.591,-1.605 -0.166,-0.324 -0.348,-0.501 -0.579,-0.715 -0.29,0.155 -0.484,0.252 -0.733,0.503 -0.168,0.166 -0.575,0.508 -0.686,0.717 C 10.211,21.739 10.124,21.599 9.948,21.366 9.594,20.891 9.34,20.651 8.847,20.323 8.698,20.457 8.629,20.568 8.578,20.763 8.541,20.909 8.537,21 8.564,21.148 8.196,21.12 7.984,21.061 7.654,20.896 7.345,20.74 7.146,20.597 6.95,20.374 c 0.169,-0.21 0.362,-0.398 0.584,-0.559 3.419,-2.471 6.26,0.791 6.178,3.929 m -4,-1.058 c -0.061,0.021 -0.119,0.045 -0.176,0.069 -0.527,0.235 -0.97,0.55 -1.32,0.923 L 6.16,23.941 c -0.141,-0.888 -0.058,-1.865 0.286,-2.696 0.728,0.073 1.181,0.205 1.872,0.53 0.595,0.28 0.939,0.502 1.394,0.911 M 7.705,24.369 C 7.405,24.899 7.246,25.5 7.238,26.133 6.821,25.782 6.509,25.245 6.317,24.621 Z M 2.041,14.675 C 1.669,13.985 1.389,13.311 1.226,12.645 1.38,12.582 1.515,12.545 1.711,12.508 1.987,12.457 2.184,12.444 2.419,12.469 2.26,13.13 2.145,13.84 2.041,14.675 M 1.124,12.135 C 0.944,10.98 1.134,9.835 1.812,8.647 1.87,8.544 1.931,8.441 2,8.339 2.099,8.588 2.205,8.767 2.389,9.018 2.556,9.246 3.108,9.575 3.442,9.803 3.081,10.488 2.818,11.113 2.618,11.759 Z M 2.415,7.768 C 2.934,7.124 3.585,6.525 4.268,6.025 4.288,6.133 4.317,6.243 4.36,6.377 4.425,6.584 4.716,7.112 4.9,7.436 4.535,7.953 4.204,8.48 3.879,9.027 3.601,8.759 3.408,8.579 3.094,8.291 2.98,8.184 2.614,7.922 2.415,7.768 M 5.128,5.457 C 5.991,4.949 6.842,4.631 7.485,4.61 6.684,5.29 6.043,5.963 5.491,6.649 5.477,6.485 5.456,6.343 5.417,6.144 5.39,6.015 5.248,5.714 5.128,5.457 m 13.978,19.67 c -0.232,-0.436 -0.454,-0.71 -0.403,-1.202 0.031,-0.296 0.093,-0.634 0.187,-0.992 0.082,0.082 0.162,0.144 0.281,0.221 0.191,0.124 0.337,0.191 0.524,0.237 -0.297,0.649 -0.457,1.296 -0.589,1.736 m -0.108,-2.578 c 0.211,-0.68 0.528,-1.415 0.958,-2.1 0.856,-1.366 1.903,-2.493 3.303,-3.007 0.123,0.483 0.577,1.678 0.577,1.678 -0.02,0.214 -0.034,0.867 -0.027,1.257 -1.38,-0.093 -2.374,0.736 -3.368,1.843 -0.17,0.19 -0.318,0.396 -0.447,0.606 -0.263,0.043 -0.48,0.003 -0.751,-0.126 -0.103,-0.05 -0.167,-0.088 -0.245,-0.151 m 4.853,-5.282 c 0.429,-0.097 0.889,-0.141 1.383,-0.12 0.883,0.035 1.821,0.433 2.564,1.019 0.04,0.258 0.091,0.444 -0.018,0.801 -0.125,0.413 -0.198,0.719 -0.444,1.15 -0.175,-0.566 -0.446,-1.434 -0.584,-1.44 -0.204,-0.01 -1.237,0.372 -1.626,0.435 0.031,0.187 0.069,0.381 0.118,0.613 0.23,-0.07 0.984,-0.314 1.235,-0.4 0.13,0.35 0.476,1.468 0.496,1.909 0.268,-0.146 0.278,-0.152 0.583,-0.174 0.175,-0.014 0.494,0.021 0.668,0.051 -0.103,0.227 -0.126,0.501 -0.238,0.724 -0.2,0.396 -0.378,0.619 -0.716,0.907 -0.115,0.098 -0.199,0.155 -0.315,0.212 l -0.043,-0.18 C 26.557,21.39 25.65,20.739 24.354,20.46 24.399,19.831 24.38,19.443 24.275,18.801 24.176,18.18 24.074,17.808 23.851,17.267 m 6.075,5.363 c -0.016,0.205 -0.044,0.414 -0.087,0.628 -0.207,1.028 -0.761,2.091 -1.434,3.061 -0.087,-0.413 -0.26,-1.069 -0.59,-1.673 -0.216,-0.397 -0.499,-0.593 -0.729,-0.721 -0.01,-0.194 -0.028,-0.384 -0.056,-0.568 0.498,-0.391 0.896,-0.566 1.551,-0.697 0.519,-0.106 0.856,-0.115 1.345,-0.03 m -2.215,4.607 c -0.748,0.919 -1.547,1.692 -2.147,2.181 0.708,-1.074 1.008,-1.782 1.285,-3.039 0.123,-0.556 0.201,-1.086 0.231,-1.586 0.281,0.211 0.441,0.448 0.563,0.821 0.127,0.376 0.013,0.62 0.031,1.017 0.012,0.239 0.022,0.419 0.037,0.606 m -10.59,-5.33 C 17.04,21.212 16.969,20.545 16.917,19.888 l 0.902,-0.094 c -0.282,0.876 -0.504,1.634 -0.698,2.113 m -0.225,-2.309 c -0.046,-0.663 -0.068,-1.317 -0.06,-1.982 0.32,0.105 0.512,0.223 0.771,0.463 0.183,0.171 0.275,0.285 0.4,0.503 -0.129,0.209 -0.218,0.319 -0.391,0.494 -0.247,0.249 -0.433,0.386 -0.72,0.522 m 0.052,-3.791 c 0.02,-0.175 0.042,-0.352 0.067,-0.529 0.194,-1.417 1.63,-3.766 3.143,-4.917 0.212,0.043 0.384,0.097 0.63,0.189 0.368,0.141 0.569,0.244 0.895,0.464 0.016,-0.324 0.014,-0.509 -0.011,-0.833 -0.02,-0.277 -0.04,-0.458 -0.084,-0.692 0.393,-0.199 0.788,-0.366 1.188,-0.5 0.184,0.086 0.339,0.181 0.544,0.326 0.304,0.216 0.462,0.363 0.7,0.648 l 0.511,-1.331 0.188,-0.011 c 0.047,0.59 0.031,0.965 -0.062,1.58 -0.065,0.437 -0.122,0.682 -0.256,1.103 l -1.729,-1.256 -0.331,1.738 C 21.9,11.679 21.648,11.63 21.197,11.559 c -0.459,-0.071 -0.721,-0.101 -1.184,-0.133 0.005,0.313 0.015,0.49 0.041,0.803 0.025,0.31 0.047,0.484 0.095,0.792 -0.404,0.232 -0.649,0.341 -1.093,0.483 -0.384,0.124 -0.609,0.175 -1.01,0.227 -0.082,0.185 0.156,0.279 0.434,0.463 0.195,0.131 0.234,0.3 0.361,0.505 -0.012,0.118 0.021,0.24 -0.084,0.29 -0.39,0.185 -0.577,0.264 -0.946,0.431 z m 8.046,-7.195 c 0.804,-0.011 1.656,0.109 2.579,0.372 l 0.266,0.081 0.362,0.32 c -0.398,0.246 -0.611,0.41 -0.948,0.733 -0.348,0.333 -0.525,0.546 -0.792,0.946 C 26.118,10.56 25.935,10.27 25.626,9.747 25.363,9.304 25.204,9.019 24.994,8.612 m 3.75,0.828 c 0.938,0.481 1.645,1.168 2.194,2.027 -0.096,0.191 -0.207,0.375 -0.327,0.547 -0.267,0.376 -0.46,0.568 -0.836,0.833 0.017,-0.339 -0.147,-0.644 -0.243,-0.969 -0.118,-0.398 -0.202,-0.45 -0.365,-0.833 -0.256,-0.602 -0.363,-1 -0.423,-1.605 m 2.569,2.692 c 0.178,0.349 0.335,0.719 0.477,1.11 0.608,1.674 0.726,2.8 -0.312,4.555 -0.172,-1.063 -0.476,-1.883 -0.997,-2.603 0.009,-0.351 0.05,-0.678 0.13,-1.112 0.109,-0.597 0.437,-1.349 0.702,-1.95 m -2,1.865 -0.241,-0.186 c -0.371,-0.28 -0.743,-0.512 -1.12,-0.696 -0.021,-0.29 -0.073,-0.521 -0.184,-0.845 -0.115,-0.339 -0.207,-0.524 -0.403,-0.823 -0.098,0.355 -0.159,0.555 -0.276,0.905 l -0.133,0.381 c -1.317,-0.365 -2.687,-0.211 -4.175,0.368 -1.194,0.465 -2.107,1.208 -2.788,2.046 -0.235,-0.138 -0.375,-0.249 -0.576,-0.458 -0.262,-0.271 -0.388,-0.458 -0.544,-0.803 0.403,-0.15 0.644,-0.211 1.068,-0.269 0.321,-0.044 0.504,-0.052 0.827,-0.041 -0.024,-0.269 -0.036,-0.42 -0.053,-0.689 -0.017,-0.276 -0.023,-0.434 -0.033,-0.71 0.395,-0.016 0.621,-0.003 1.011,0.062 0.345,0.058 0.538,0.107 0.866,0.226 0.103,-0.228 0.318,-1.535 0.337,-1.707 0.185,0.148 1.563,1.265 1.823,1.338 -0.002,-0.278 0.01,-0.436 0.052,-0.71 0.075,-0.494 0.16,-0.773 0.372,-1.225 0.201,0.212 0.307,0.343 0.472,0.586 0.199,0.295 0.508,1.046 0.535,1.205 0.289,-0.303 0.45,-0.476 0.732,-0.784 0.276,-0.302 0.432,-0.474 0.7,-0.782 0.309,0.225 0.83,0.881 1.007,1.218 0.226,0.432 0.657,2.133 0.724,2.393 m -9.406,1.257 c -0.341,0.438 -0.623,0.898 -0.85,1.356 -0.247,0.502 -0.468,1.021 -0.664,1.536 l -1.106,-0.884 0.308,-0.576 0.691,-0.297 -0.371,-0.577 c 0.324,-0.207 0.522,-0.304 0.884,-0.434 0.309,-0.11 0.491,-0.249 0.815,-0.205 0.119,0.018 0.199,0.038 0.293,0.081 m 6.546,1.126 c -0.996,-0.269 -1.973,-0.229 -2.888,0.056 -0.259,-0.335 -0.913,-0.634 -0.913,-0.634 -0.251,-0.132 -1.037,-0.445 -1.474,-0.585 0.701,-0.691 1.486,-1.21 2.325,-1.521 0.214,0.106 0.374,0.22 0.588,0.407 0.288,0.252 0.43,0.429 0.618,0.762 0.143,-0.305 0.218,-0.479 0.342,-0.792 0.11,-0.281 0.179,-0.472 0.257,-0.713 0.2,-10e-4 0.402,0.008 0.604,0.031 0.263,0.547 0.583,1.337 0.583,1.337 l 0.603,1.898 c -0.206,-0.101 -0.42,-0.185 -0.645,-0.246 m -3.866,0.458 c -1.078,0.561 -2.046,1.457 -2.834,2.561 l -0.785,-0.694 c 0.447,-1.16 1.046,-2.172 1.752,-2.994 z m -3.021,2.832 c -0.629,0.939 -1.129,2.015 -1.464,3.15 0.075,-1.296 0.312,-2.507 0.679,-3.601 z m 7.016,-6.164 c 0.202,0.048 0.402,0.108 0.604,0.181 0.954,0.343 1.747,0.995 2.297,1.798 -0.105,0.175 -0.215,0.314 -0.385,0.499 -0.425,0.463 -0.784,0.729 -1.358,1.04 -0.09,-0.067 -0.181,-0.131 -0.275,-0.19 -0.009,-0.44 -0.017,-0.863 -0.116,-1.304 -0.189,-0.834 -0.378,-1.344 -0.767,-2.024 m 3.293,2.657 c 0.563,1.185 0.636,2.566 0.014,3.742 -0.343,-0.804 -0.971,-1.875 -1.857,-2.646 z M 1.859,22.368 c 0.552,0.421 0.887,0.633 1.503,0.954 0.557,0.29 0.887,0.431 1.481,0.633 -0.574,0.207 -0.931,0.271 -1.541,0.275 -0.288,0.002 -0.452,-0.01 -0.736,-0.053 0,0.001 -0.693,-0.796 -0.707,-1.809 M 16.948,11.587 C 16.795,11.057 16.7,10.468 16.679,9.866 l 0.669,0.182 C 17.336,9.822 17.327,9.695 17.307,9.472 17.27,9.069 17.24,8.841 17.173,8.441 c 0.508,0.13 0.796,0.198 1.308,0.308 0.314,0.067 0.512,0.107 0.793,0.158 -0.889,0.667 -1.655,1.555 -2.326,2.68 M 16.872,7.996 c 0.219,-0.838 0.629,-1.603 1.279,-2.149 0.712,-0.601 1.565,-1.123 2.513,-1.509 0.004,0.415 0.047,0.698 0.165,1.138 0.075,0.278 0.156,0.424 0.247,0.699 0.124,0.386 0.188,0.606 0.289,1 C 20.74,6.953 20.377,6.852 19.727,6.721 19.285,6.632 19.032,6.593 18.583,6.547 c -0.023,0.188 -0.023,0.297 0,0.483 0.05,0.392 0.364,0.543 0.382,0.937 0.01,0.222 -0.009,0.355 -0.082,0.565 z m 4.361,-3.87 C 22.55,3.684 24.016,3.51 25.516,3.748 25.192,3.893 24.959,4.066 24.668,4.362 24.379,4.658 24.266,4.875 24.071,5.239 23.912,5.535 23.836,5.713 23.729,6.031 L 23.101,5.567 C 22.617,5.21 22.325,5.03 21.856,4.652 21.603,4.448 21.443,4.313 21.233,4.126 m 4.83,-0.273 c 0.392,0.089 0.782,0.206 1.173,0.354 0.533,0.202 1.033,0.479 1.483,0.811 -0.386,0.357 -0.656,0.58 -1.116,0.921 -0.205,0.153 -0.322,0.236 -0.536,0.38 C 26.638,5.771 26.447,5.401 26.245,4.735 26.142,4.393 26.094,4.167 26.063,3.853 m 3.063,1.49 c 1.413,1.235 2.192,3.047 1.652,4.745 C 30.088,9.353 29.397,8.778 28.664,8.35 28.451,7.985 28.373,7.683 28.358,7.223 28.334,6.43 28.572,5.839 29.126,5.343 M 27.314,7.737 C 26.661,7.519 25.962,7.393 25.2,7.351 25.206,7.086 25.205,6.913 25.198,6.627 25.186,6.173 25.171,5.916 25.127,5.463 c 0.352,0.081 0.55,0.163 0.856,0.355 0.398,0.252 0.59,0.467 0.856,0.857 0.258,0.379 0.377,0.642 0.475,1.062 M 23.688,7.366 C 23.021,7.415 22.397,7.517 21.813,7.677 21.817,7.476 21.814,7.303 21.802,7.056 21.77,6.43 21.723,6.076 21.586,5.464 c 0.421,0.252 0.649,0.417 1.021,0.738 0.478,0.412 0.755,0.708 1.081,1.164 m -2.51,0.513 c -0.616,0.225 -1.185,0.519 -1.712,0.889 -0.207,-0.73 -0.302,-1.492 -0.134,-1.569 0.425,-0.059 0.695,-0.022 1.092,0.143 0.338,0.142 0.54,0.283 0.754,0.537 M 18.305,1.805 c 0.464,-0.338 1,-0.553 1.591,-0.676 0.226,0.168 0.469,0.476 0.6,0.606 0.309,0.307 0.506,0.562 0.499,0.995 -0.003,0.161 -0.025,0.294 -0.071,0.416 L 20.52,3.326 C 20.332,3.069 20.142,2.902 19.832,2.707 19.607,2.568 18.68,2.026 18.305,1.805 m 2.371,-0.782 c 0.271,-0.021 0.55,-0.026 0.836,-0.02 1.446,0.034 2.377,0.413 3.435,1.4 -0.94,-0.011 -1.691,0.047 -2.422,0.211 L 21.492,2.352 Z m -1.198,2.138 c 0.201,0.132 0.301,0.263 0.373,0.49 -1.234,0.636 -1.986,1.252 -2.969,2.392 -0.047,-0.86 -0.195,-1.803 0.235,-2.763 0.195,-0.082 0.386,-0.115 0.643,-0.119 0.313,-0.005 0.937,-0.08 1.093,-0.144 0.232,-0.093 0.416,0.008 0.625,0.144 M 3.876,4.565 C 4.247,3.9 4.73,3.256 5.31,2.705 5.62,2.867 5.839,3.018 6.145,3.278 6.379,3.475 6.521,3.615 6.692,3.82 5.76,4.023 4.915,4.374 3.94,4.935 3.936,4.872 3.928,4.807 3.913,4.729 Z M 5.759,2.314 C 6.647,1.606 7.722,1.124 8.947,1.072 8.845,1.598 8.61,2.395 8.505,2.645 8.567,2.709 8.871,3.246 8.954,3.59 8.462,3.598 8.012,3.623 7.59,3.672 7.121,3.32 6.186,2.628 5.759,2.314 m 3.907,-1.23 c 1.25,0.078 2.138,0.363 2.803,0.833 l 0.076,0.638 c 0,0 -0.33,0.841 -0.577,1.357 C 11.592,3.807 11.21,3.73 10.808,3.679 10.715,3.446 10.613,3.211 10.475,3.067 10.16,2.734 9.939,2.574 9.526,2.377 L 9.598,1.711 Z m 3.667,1.697 c 0.422,0.583 0.721,1.304 0.997,2.142 -0.653,-0.36 -1.237,-0.635 -1.813,-0.838 z m -4.1,24.302 C 8.511,26.495 8.312,25.586 8.724,24.751 l 0.612,0.167 0.606,0.466 C 9.493,25.829 9.289,26.369 9.233,27.083 M 9.172,24.209 c 0.798,-0.623 2.174,-0.588 2.796,0.233 -0.646,0.027 -1.298,0.388 -1.663,0.643 L 9.919,24.301 Z M 23.02,24.41 c 0.007,0.21 0.053,0.381 0.122,0.528 -0.093,0.264 -0.137,0.49 -0.172,0.823 -0.065,0.618 -0.031,0.992 0.149,1.587 l 0.353,-0.754 0.032,-1.174 c 0.327,0.324 0.729,0.606 0.9,1.207 0.148,0.528 0.084,1.197 -0.184,1.886 C 23.2,28.448 22.5,28.105 22.201,27.245 21.954,26.528 22.12,24.979 23.02,24.41"
     fill="#A11E3B"
     clip-rule="evenodd"
     fill-rule="evenodd" /></svg>
